<?xml version="1.0" encoding="UTF-8"?>
<svg id="Camada_1" data-name="Camada 1" xmlns="http://www.w3.org/2000/svg" viewBox="0 0 842.89 215.41">
  <defs>
    <style>
      .cls-1 {
        fill: #04165c;
      }

      .cls-2 {
        fill: #25aaff;
      }
    </style>
  </defs>
  <g>
    <path class="cls-2" d="M120.56,120.45c-4.74,0-9.04-2.62-11.24-6.84-1.4-2.69-4.18-4.38-7.22-4.38s-5.82,1.69-7.22,4.38c-2.2,4.22-6.51,6.85-11.24,6.85-6.98,0-12.66-5.68-12.66-12.66s5.68-12.66,12.66-12.66c4.74,0,9.04,2.62,11.24,6.84,1.4,2.69,4.18,4.38,7.22,4.38s5.82-1.69,7.22-4.38c1.21-2.32,3.15-4.26,5.48-5.45,2.71-1.4,4.41-4.19,4.41-7.24,0-3.05-1.7-5.84-4.41-7.24-4.25-2.19-6.9-6.51-6.9-11.27,0-6.98,5.68-12.66,12.66-12.66,4.71,0,9.01,2.6,11.22,6.79,1.41,2.67,4.18,4.35,7.2,4.35s5.79-1.67,7.2-4.35c2.21-4.19,6.5-6.79,11.22-6.79,6.98,0,12.66,5.68,12.66,12.66s-5.68,12.66-12.66,12.66c-4.71,0-9.01-2.6-11.22-6.79-1.41-2.67-4.18-4.35-7.2-4.35h0c-3.02,0-5.79,1.67-7.2,4.35-1.21,2.3-3.15,4.22-5.45,5.4-2.71,1.39-4.41,4.19-4.41,7.24s1.7,5.84,4.41,7.24c4.25,2.19,6.9,6.51,6.9,11.27,0,6.98-5.68,12.66-12.66,12.66Z"/>
    <path class="cls-2" d="M157.4,157.29c-6.98,0-12.66-5.68-12.66-12.66,0-4.71,2.6-9.01,6.79-11.22,2.67-1.41,4.35-4.18,4.35-7.2s-1.67-5.79-4.35-7.2c-4.19-2.21-6.79-6.5-6.79-11.22,0-6.98,5.68-12.66,12.66-12.66s12.66,5.68,12.66,12.66c0,4.71-2.6,9.01-6.79,11.22-2.67,1.41-4.35,4.18-4.35,7.2s1.67,5.79,4.35,7.2c4.19,2.21,6.79,6.5,6.79,11.22,0,6.98-5.68,12.66-12.66,12.66Z"/>
    <path class="cls-2" d="M83.64,83.44c-6.98,0-12.66-5.68-12.66-12.66s5.68-12.66,12.66-12.66,12.66,5.68,12.66,12.66-5.68,12.66-12.66,12.66Z"/>
    <path class="cls-2" d="M120.47,157.29c-4.71,0-9.01-2.6-11.22-6.79-1.41-2.67-4.18-4.35-7.2-4.35s-5.79,1.67-7.2,4.35c-2.21,4.19-6.5,6.79-11.22,6.79-6.98,0-12.66-5.68-12.66-12.66s5.68-12.66,12.66-12.66c4.71,0,9.01,2.6,11.22,6.79,1.41,2.67,4.18,4.35,7.2,4.35s5.79-1.67,7.2-4.35c2.21-4.19,6.5-6.79,11.22-6.79,6.98,0,12.66,5.68,12.66,12.66s-5.68,12.66-12.66,12.66Z"/>
  </g>
  <g>
    <g>
      <path class="cls-1" d="M232.52,77.17l22.41,61.07h-9.07l-5.56-16.42h-26.69l-5.56,16.42h-8.55l22.41-61.07h10.61ZM238.08,114.97l-10.86-31.82h-.51l-10.86,31.82h22.24Z"/>
      <path class="cls-1" d="M310.96,119.25c-1.28,11.29-11.46,20.01-25.74,20.01-17.96,0-30.28-12.66-30.28-31.56s12.23-31.56,30.28-31.56c13.6,0,24.29,7.95,25.57,20.01h-7.87c-1.54-7.7-8.47-12.83-17.7-12.83-12.57,0-21.9,9.41-21.9,24.38s9.24,24.38,21.9,24.38c9.67,0,15.99-4.79,17.88-12.83h7.87Z"/>
      <path class="cls-1" d="M346.19,77.17l22.41,61.07h-9.07l-5.56-16.42h-26.68l-5.56,16.42h-8.55l22.41-61.07h10.61ZM351.76,114.97l-10.86-31.82h-.51l-10.86,31.82h22.24Z"/>
      <path class="cls-1" d="M395.8,77.17c16.76,0,31.82,10.35,31.82,30.62s-15.05,30.45-31.82,30.45h-20.7v-61.07h20.7ZM395.46,131.22c12.15,0,23.78-7.44,23.78-23.43s-11.63-23.61-23.78-23.61h-12.14v47.04h12.14Z"/>
      <path class="cls-1" d="M475.09,77.17v7.01h-30.53v18.56h27.11v7.01h-27.11v21.47h32.24v7.01h-40.45v-61.07h38.75Z"/>
      <path class="cls-1" d="M492.97,83.16h-.09c.17,9.66.17,19.24.17,28.91v26.17h-7.7v-61.07h13.86l18.3,55,18.39-55h14.28v61.07h-8.21v-26.17c0-9.67,0-19.24.17-28.91h-.17l-18.73,55.08h-11.46l-18.82-55.08Z"/>
      <path class="cls-1" d="M571.05,77.17v61.07h-8.21v-61.07h8.21Z"/>
      <path class="cls-1" d="M610.57,77.17l22.41,61.07h-9.07l-5.56-16.42h-26.68l-5.56,16.42h-8.55l22.41-61.07h10.61ZM616.13,114.97l-10.86-31.82h-.51l-10.86,31.82h22.24Z"/>
    </g>
    <g>
      <path class="cls-1" d="M638.62,77.17l4.59,11.03h14.36v50.04h13.01v-50.04h21.13v-11.03h-53.1Z"/>
      <path class="cls-1" d="M699.34,77.17v61.07h13.01v-61.07h-13.01Z"/>
      <path class="cls-1" d="M748.97,101.64c-9.65-1.8-13.84-3.86-13.84-8.57,0-4.26,3.84-6.67,10.85-6.67,7.45,0,11.56,3.01,11.88,8.3h11.46c0-12.99-8.97-18.55-23.59-18.55-15.57,0-23.26,7.62-23.26,17.45,0,11.28,7.09,16.34,21.88,18.98,10.43,1.88,14.89,4.11,14.89,9.07,0,4.54-4.29,7.34-12.66,7.34-8.97,0-13.86-3.16-14.36-9.73h-11.48c0,13.09,9.85,20,26.1,20s25.07-7.7,25.07-18.3c0-11.13-7.19-16.42-22.94-19.33Z"/>
    </g>
  </g>
</svg>